<mxfile host="app.diagrams.net" modified="2024-05-23T02:05:28.256Z" agent="Mozilla/5.0 (Windows NT 10.0; Win64; x64) AppleWebKit/537.36 (KHTML, like Gecko) Chrome/124.0.0.0 Safari/537.36 Edg/124.0.0.0" etag="uwyyE0kLIGdOaro6NBhF" version="24.4.6" type="github">
  <diagram name="第 1 页" id="9BHL2iZfONTejXkZVWIC">
    <mxGraphModel dx="1254" dy="750" grid="1" gridSize="10" guides="1" tooltips="1" connect="1" arrows="1" fold="1" page="1" pageScale="1" pageWidth="827" pageHeight="1169" math="0" shadow="0">
      <root>
        <mxCell id="0" />
        <mxCell id="1" parent="0" />
        <mxCell id="TzQZ0hr8e3iL2BNSypwS-10" value="" style="swimlane;startSize=0;strokeWidth=2;" vertex="1" parent="1">
          <mxGeometry x="174" y="250" width="480" height="80" as="geometry" />
        </mxCell>
        <mxCell id="TzQZ0hr8e3iL2BNSypwS-2" value="&lt;span style=&quot;font-size:11.0pt;mso-bidi-font-size:12.0pt;&lt;br/&gt;line-height:150%;font-family:等线;mso-ascii-theme-font:minor-latin;mso-fareast-theme-font:&lt;br/&gt;minor-fareast;mso-hansi-theme-font:minor-latin;mso-bidi-font-family:&amp;quot;Times New Roman&amp;quot;;&lt;br/&gt;mso-bidi-theme-font:minor-bidi;mso-ansi-language:EN-US;mso-fareast-language:&lt;br/&gt;ZH-CN;mso-bidi-language:AR-SA&quot;&gt;安全评估框架&lt;/span&gt;" style="rounded=0;whiteSpace=wrap;html=1;strokeWidth=2;" vertex="1" parent="TzQZ0hr8e3iL2BNSypwS-10">
          <mxGeometry y="50" width="160" height="30" as="geometry" />
        </mxCell>
        <mxCell id="TzQZ0hr8e3iL2BNSypwS-11" value="&lt;font face=&quot;等线&quot;&gt;&lt;span style=&quot;font-size: 14.6667px;&quot;&gt;脆弱性分析&lt;/span&gt;&lt;/font&gt;" style="rounded=0;whiteSpace=wrap;html=1;strokeWidth=2;" vertex="1" parent="TzQZ0hr8e3iL2BNSypwS-10">
          <mxGeometry x="160" y="50" width="160" height="30" as="geometry" />
        </mxCell>
        <mxCell id="TzQZ0hr8e3iL2BNSypwS-15" value="&lt;span style=&quot;font-size:11.0pt;mso-bidi-font-size:12.0pt;&lt;br/&gt;line-height:150%;font-family:等线;mso-ascii-theme-font:minor-latin;mso-fareast-theme-font:&lt;br/&gt;minor-fareast;mso-hansi-theme-font:minor-latin;mso-bidi-font-family:&amp;quot;Times New Roman&amp;quot;;&lt;br/&gt;mso-bidi-theme-font:minor-bidi;mso-ansi-language:EN-US;mso-fareast-language:&lt;br/&gt;ZH-CN;mso-bidi-language:AR-SA&quot;&gt;攻击模拟&lt;/span&gt;" style="rounded=0;whiteSpace=wrap;html=1;strokeWidth=2;" vertex="1" parent="TzQZ0hr8e3iL2BNSypwS-10">
          <mxGeometry x="320" y="50" width="160" height="30" as="geometry" />
        </mxCell>
        <mxCell id="TzQZ0hr8e3iL2BNSypwS-16" value="&lt;font style=&quot;font-size: 18px;&quot;&gt;&lt;b&gt;基于强化学习的电力中断恶意代码检测&lt;/b&gt;&lt;/font&gt;" style="text;html=1;align=center;verticalAlign=middle;whiteSpace=wrap;rounded=0;strokeWidth=2;" vertex="1" parent="TzQZ0hr8e3iL2BNSypwS-10">
          <mxGeometry x="98" y="10" width="336" height="30" as="geometry" />
        </mxCell>
      </root>
    </mxGraphModel>
  </diagram>
</mxfile>
